<?xml version="1.0" encoding="UTF-8"?>
<svg version="1.1" xmlns="http://www.w3.org/2000/svg" width="159" height="62">
<path d="M0 0 C52.47 0 104.94 0 159 0 C159 20.46 159 40.92 159 62 C106.53 62 54.06 62 0 62 C0 41.54 0 21.08 0 0 Z " fill="#FCFCFC" transform="translate(0,0)"/>
<path d="M0 0 C4.7058812 1.1764703 5.39507754 2.30351876 8.25 6.0625 C8.95640625 6.98160156 9.6628125 7.90070312 10.390625 8.84765625 C10.92171875 9.55792969 11.4528125 10.26820312 12 11 C12.33 7.37 12.66 3.74 13 0 C14.32 0 15.64 0 17 0 C17 6.27 17 12.54 17 19 C11.21745427 17.84349085 10.84150446 17.08832013 7.6875 12.4375 C6.99011719 11.42558594 6.29273437 10.41367187 5.57421875 9.37109375 C5.05472656 8.58863281 4.53523438 7.80617188 4 7 C3.67 10.96 3.34 14.92 3 19 C2.01 19 1.02 19 0 19 C0 12.73 0 6.46 0 0 Z " fill="#262626" transform="translate(120,25)"/>
<path d="M0 0 C0.99 0 1.98 0 3 0 C3 5.28 3 10.56 3 16 C6.3 16 9.6 16 13 16 C13 11.71 13 7.42 13 3 C10.36 3 7.72 3 5 3 C5 2.01 5 1.02 5 0 C8.63 0 12.26 0 16 0 C16 6.27 16 12.54 16 19 C10.72 19 5.44 19 0 19 C0 12.73 0 6.46 0 0 Z " fill="#171717" transform="translate(100,25)"/>
<path d="M0 0 C4.62 0 9.24 0 14 0 C14 0.99 14 1.98 14 3 C10.37 3 6.74 3 3 3 C3 4.65 3 6.3 3 8 C6.63 8 10.26 8 14 8 C14 11.63 14 15.26 14 19 C9.38 19 4.76 19 0 19 C0 18.01 0 17.02 0 16 C3.63 16 7.26 16 11 16 C11 14.35 11 12.7 11 11 C7.37 11 3.74 11 0 11 C0 7.37 0 3.74 0 0 Z " fill="#131313" transform="translate(57,25)"/>
<path d="M0 0 C0.99 0 1.98 0 3 0 C4.19942605 2.59925496 5.38472821 5.20345507 6.5625 7.8125 C6.90474609 8.55048828 7.24699219 9.28847656 7.59960938 10.04882812 C7.91865234 10.76103516 8.23769531 11.47324219 8.56640625 12.20703125 C8.86490479 12.8616333 9.16340332 13.51623535 9.47094727 14.19067383 C10 16 10 16 9 19 C8.34 19 7.68 19 7 19 C6.34 17.35 5.68 15.7 5 14 C0.94914321 14.24631557 0.94914321 14.24631557 -3 15 C-4.5899433 16.92064793 -4.5899433 16.92064793 -5 19 C-5.99 19 -6.98 19 -8 19 C-7.38188466 14.44684052 -5.53234107 10.71540233 -3.4375 6.6875 C-2.9434668 5.71973633 -2.9434668 5.71973633 -2.43945312 4.73242188 C-1.63175745 3.15214772 -0.81662387 1.57567895 0 0 Z " fill="#3A3A3A" transform="translate(44,25)"/>
<path d="M0 0 C1.32 0 2.64 0 4 0 C4 2.64 4 5.28 4 8 C6.31 8 8.62 8 11 8 C11 5.36 11 2.72 11 0 C11.99 0 12.98 0 14 0 C14 5.94 14 11.88 14 18 C13.01 18.33 12.02 18.66 11 19 C11 16.36 11 13.72 11 11 C8.36 11 5.72 11 3 11 C3 13.64 3 16.28 3 19 C2.01 19 1.02 19 0 19 C0 12.73 0 6.46 0 0 Z " fill="#232323" transform="translate(74,25)"/>
<path d="M0 0 C4.62 0 9.24 0 14 0 C14 0.99 14 1.98 14 3 C10.37 3 6.74 3 3 3 C3 4.98 3 6.96 3 9 C6.3 9 9.6 9 13 9 C13 9.66 13 10.32 13 11 C9.7 11 6.4 11 3 11 C3 13.64 3 16.28 3 19 C2.01 19 1.02 19 0 19 C0 12.73 0 6.46 0 0 Z " fill="#060606" transform="translate(19,25)"/>
<path d="M0 0 C0.99 0 1.98 0 3 0 C3 6.27 3 12.54 3 19 C2.01 19 1.02 19 0 19 C0 12.73 0 6.46 0 0 Z " fill="#080808" transform="translate(93,25)"/>
<path d="M0 0 C0.66 0.33 1.32 0.66 2 1 C1.67 1.66 1.34 2.32 1 3 C2.98 3 4.96 3 7 3 C7 3.66 7 4.32 7 5 C5.88625 5.0825 4.7725 5.165 3.625 5.25 C-0.05753944 5.57873787 -0.05753944 5.57873787 -1.4375 8.0625 C-1.7159375 9.0215625 -1.7159375 9.0215625 -2 10 C-2.99 10 -3.98 10 -5 10 C-4.4454626 6.67277559 -3.75986957 3.8986087 -2 1 C-1.34 0.67 -0.68 0.34 0 0 Z " fill="#0D0D0D" transform="translate(41,34)"/>
</svg>
