<?xml version="1.0" encoding="UTF-8"?>
<svg version="1.1" xmlns="http://www.w3.org/2000/svg" width="500" height="500">
<path d="M0 0 C2.08218362 -0.10832169 4.16599129 -0.18573541 6.25 -0.25 C7.99023438 -0.31960937 7.99023438 -0.31960937 9.765625 -0.390625 C13.57666013 0.06964494 14.65511755 1.05148444 17 4 C15.25 8.875 15.25 8.875 13 10 C13.66 10.94875 14.32 11.8975 15 12.875 C17 16 17 16 17 18 C17.66 18.33 18.32 18.66 19 19 C17.35 19 15.7 19 14 19 C13.443125 17.865625 12.88625 16.73125 12.3125 15.5625 C10.5777124 12.44531169 10.5777124 12.44531169 7.25 11.0625 C6.13625 11.0315625 6.13625 11.0315625 5 11 C5 13.31 5 15.62 5 18 C5.99 18.33 6.98 18.66 8 19 C5.36 19 2.72 19 0 19 C0.66 18.67 1.32 18.34 2 18 C1.85946128 15.37461716 1.71281053 12.74982573 1.5625 10.125 C1.50352539 9.00544922 1.50352539 9.00544922 1.44335938 7.86328125 C1.28426376 3.80013136 1.28426376 3.80013136 0 0 Z M5 1 C5 3.97 5 6.94 5 10 C9.47883696 9.55296014 9.47883696 9.55296014 13 7 C12.67958603 4.39719432 12.67958603 4.39719432 12 2 C9.69 1.67 7.38 1.34 5 1 Z " fill="#5C5C5C" transform="translate(207,229)"/>
<path d="M0 0 C3.06818718 1.53409359 4.52410348 2.57528481 5.625 5.87109375 C6.25655114 9.35120365 6.20134191 11.49664523 4.875 14.8125 C2.65883242 17.39802885 1.1806324 18.72774704 -2 20 C-6.04670848 20.20152931 -9.05427816 19.63048122 -12.4375 17.375 C-14.56005795 14.14871191 -14.93354451 11.85441842 -15 8 C-12.07097504 0.23808387 -7.73571684 -1.05857178 0 0 Z M-9.875 2.5 C-11.79568597 6.76819105 -11.69901102 11.05275503 -10.125 15.4375 C-9.06925899 17.15893274 -9.06925899 17.15893274 -7 18 C-2.90337558 18.44790982 -2.90337558 18.44790982 0.6640625 16.7578125 C2.76801671 13.9894517 2.4741124 11.60079993 2.34765625 8.23046875 C1.81406947 4.80711988 0.66348847 3.17284586 -2 1 C-5.45148247 0.36605424 -7.09983242 0.27986594 -9.875 2.5 Z " fill="#313131" transform="translate(328,229)"/>
<path d="M0 0 C3.0625 1.9375 3.0625 1.9375 5 5 C5.69113243 8.15864655 5.70352709 10.84270771 5 14 C2.47631975 17.67080764 0.82964117 18.75864984 -3.4375 20 C-7.53094236 20 -9.59065251 19.22004022 -13 17 C-15.45665197 13.31502204 -15.70086491 10.28028214 -15 6 C-11.06559509 -0.16390102 -7.00077556 -1.02597573 0 0 Z M-9.875 2 C-11.591025 5.05071112 -11.88172117 7.51077439 -12 11 C-10.75785508 14.65742672 -9.86182035 16.43301293 -6.625 18.5625 C-3.95394073 19.20424336 -3.95394073 19.20424336 -1.25 18.1875 C1.69429633 15.32498968 1.91574037 13.24173169 2.125 9.2265625 C1.94103383 5.94966512 1.33024363 4.33024363 -1 2 C-5.5279678 0.66543393 -5.5279678 0.66543393 -9.875 2 Z " fill="#3B3B3B" transform="translate(279,229)"/>
<path d="M0 0 C3.0625 1.9375 3.0625 1.9375 5 5 C5.69113243 8.15864655 5.70352709 10.84270771 5 14 C2.47631975 17.67080764 0.82964117 18.75864984 -3.4375 20 C-7.53094236 20 -9.59065251 19.22004022 -13 17 C-15.45665197 13.31502204 -15.70086491 10.28028214 -15 6 C-11.06559509 -0.16390102 -7.00077556 -1.02597573 0 0 Z M-9.875 2 C-11.591025 5.05071112 -11.88172117 7.51077439 -12 11 C-10.75785508 14.65742672 -9.86182035 16.43301293 -6.625 18.5625 C-3.95394073 19.20424336 -3.95394073 19.20424336 -1.25 18.1875 C1.69429633 15.32498968 1.91574037 13.24173169 2.125 9.2265625 C1.94103383 5.94966512 1.33024363 4.33024363 -1 2 C-5.5279678 0.66543393 -5.5279678 0.66543393 -9.875 2 Z " fill="#3B3B3B" transform="translate(200,229)"/>
<path d="M0 0 C5.28 0 10.56 0 16 0 C16.33 2.64 16.66 5.28 17 8 C16.1028125 6.7934375 16.1028125 6.7934375 15.1875 5.5625 C13.19052724 2.77672016 13.19052724 2.77672016 10 2 C10 7.61 10 13.22 10 19 C10.99 19.33 11.98 19.66 13 20 C9.7 20 6.4 20 3 20 C3.99 19.67 4.98 19.34 6 19 C6 13.39 6 7.78 6 2 C1.88704012 3.54375423 1.88704012 3.54375423 0.75 6.625 C0.5025 7.40875 0.255 8.1925 0 9 C-0.33 9 -0.66 9 -1 9 C-0.67 6.03 -0.34 3.06 0 0 Z " fill="#5E5E5E" transform="translate(228,228)"/>
<path d="M0 0 C1.91635217 -0.05423638 3.83314925 -0.09289963 5.75 -0.125 C7.35101563 -0.15980469 7.35101563 -0.15980469 8.984375 -0.1953125 C11.95887947 -0.00266325 13.57976053 0.29392955 16 2 C16.9375 4.9375 16.9375 4.9375 17 8 C15.39344543 10.2011884 14.4119488 10.90679569 11.73828125 11.51171875 C10.93777344 11.56972656 10.13726562 11.62773437 9.3125 11.6875 C8.10013672 11.78611328 8.10013672 11.78611328 6.86328125 11.88671875 C6.24839844 11.92410156 5.63351563 11.96148437 5 12 C5 13.98 5 15.96 5 18 C5.99 18.33 6.98 18.66 8 19 C5.36 19 2.72 19 0 19 C0.66 18.67 1.32 18.34 2 18 C1.85946128 15.37461716 1.71281053 12.74982573 1.5625 10.125 C1.50352539 9.00544922 1.50352539 9.00544922 1.44335938 7.86328125 C1.28426376 3.80013136 1.28426376 3.80013136 0 0 Z M5 1 C5 4.3 5 7.6 5 11 C9.33229715 10.1395861 9.33229715 10.1395861 13 8 C13.33343551 5.54207971 13.33343551 5.54207971 13 3 C9.90754997 0.53774984 9.90754997 0.53774984 5 1 Z " fill="#737373" transform="translate(167,229)"/>
<path d="M0 0 C0.40729228 2.32156597 0.74438677 4.6568787 1 7 C0.29875 6.195625 -0.4025 5.39125 -1.125 4.5625 C-4.26291593 1.76566189 -5.88758763 1.28691249 -10 1 C-10 3.64 -10 6.28 -10 9 C-6.06924356 8.42547254 -6.06924356 8.42547254 -3 6 C-3 7.98 -3 9.96 -3 12 C-5.31 11.34 -7.62 10.68 -10 10 C-10 12.64 -10 15.28 -10 18 C-9.01 18.33 -8.02 18.66 -7 19 C-9.97 19 -12.94 19 -16 19 C-15.34 18.34 -14.68 17.68 -14 17 C-13.85492305 14.25514407 -13.81347577 11.61519457 -13.875 8.875 C-13.88402344 8.12089844 -13.89304688 7.36679688 -13.90234375 6.58984375 C-13.9259313 4.72642746 -13.96180281 2.86317407 -14 1 C-14.66 0.67 -15.32 0.34 -16 0 C-13.7089095 -0.19441368 -11.41709663 -0.38033135 -9.125 -0.5625 C-7.21074219 -0.71912109 -7.21074219 -0.71912109 -5.2578125 -0.87890625 C-2 -1 -2 -1 0 0 Z " fill="#868686" transform="translate(262,229)"/>
<path d="M0 0 C2.64 0 5.28 0 8 0 C7.34 0.66 6.68 1.32 6 2 C5.6936141 4.73434962 5.4886664 7.38279821 5.375 10.125 C5.33632813 10.87910156 5.29765625 11.63320312 5.2578125 12.41015625 C5.16348969 14.27303184 5.08065338 16.13648255 5 18 C9.10700777 17.95996945 9.10700777 17.95996945 13 17 C14.68983507 14.71019091 15.18962861 12.78565167 16 10 C16.33 10 16.66 10 17 10 C16.67 13.3 16.34 16.6 16 20 C10.72 19.67 5.44 19.34 0 19 C0.66 18.67 1.32 18.34 2 18 C2 12.39 2 6.78 2 1 C1.34 0.67 0.68 0.34 0 0 Z " fill="#474747" transform="translate(286,229)"/>
<path d="M0 0 C2.64 0 5.28 0 8 0 C7.01 0.495 7.01 0.495 6 1 C6 6.61 6 12.22 6 18 C6.66 18.33 7.32 18.66 8 19 C5.36 19 2.72 19 0 19 C0.66 18.67 1.32 18.34 2 18 C2 12.39 2 6.78 2 1 C1.34 0.67 0.68 0.34 0 0 Z " fill="#5A5A5A" transform="translate(304,229)"/>
<path d="M0 0 C3.13730045 0.64107586 4.96611688 2.17659141 7.16015625 4.44140625 C6.50015625 7.41140625 5.84015625 10.38140625 5.16015625 13.44140625 C4.83015625 13.44140625 4.50015625 13.44140625 4.16015625 13.44140625 C4.03898437 12.81492188 3.9178125 12.1884375 3.79296875 11.54296875 C3.62539063 10.72570312 3.4578125 9.9084375 3.28515625 9.06640625 C3.12273437 8.25429687 2.9603125 7.4421875 2.79296875 6.60546875 C2.29356693 4.25466702 2.29356693 4.25466702 0.16015625 2.44140625 C-2.83984375 2.02473958 -2.83984375 2.02473958 -5.83984375 2.44140625 C-8.13618199 5.88591362 -8.3800086 8.37952908 -8.83984375 12.44140625 C-9.49984375 11.45140625 -10.15984375 10.46140625 -10.83984375 9.44140625 C-11.49984375 10.43140625 -12.15984375 11.42140625 -12.83984375 12.44140625 C-12.60023099 8.36798925 -12.15661801 5.90666845 -9.83984375 2.50390625 C-6.28563855 0.06039018 -4.22439901 -0.21862499 0 0 Z " fill="#666666" transform="translate(325.83984375,228.55859375)"/>
<path d="M0 0 C0.66 0 1.32 0 2 0 C2 5.61 2 11.22 2 17 C3.32 17.33 4.64 17.66 6 18 C3.03 18 0.06 18 -3 18 C-2.34 17.34 -1.68 16.68 -1 16 C-0.6936141 13.26565038 -0.4886664 10.61720179 -0.375 7.875 C-0.33632812 7.12089844 -0.29765625 6.36679688 -0.2578125 5.58984375 C-0.16348969 3.72696816 -0.08065338 1.86351745 0 0 Z " fill="#191919" transform="translate(249,230)"/>
<path d="M0 0 C0.66 0 1.32 0 2 0 C2.03738281 1.13179687 2.07476562 2.26359375 2.11328125 3.4296875 C2.17893082 4.91149205 2.24537851 6.39326139 2.3125 7.875 C2.33505859 8.62136719 2.35761719 9.36773437 2.38085938 10.13671875 C2.47811945 12.099604 2.73042294 14.05328322 3 16 C3.99 16.66 4.98 17.32 6 18 C3.36 18 0.72 18 -2 18 C-1.34 17.67 -0.68 17.34 0 17 C0 11.39 0 5.78 0 0 Z " fill="#242424" transform="translate(209,230)"/>
<path d="M0 0 C0.66 0 1.32 0 2 0 C2.03738281 1.13179687 2.07476562 2.26359375 2.11328125 3.4296875 C2.17893082 4.91149205 2.24537851 6.39326139 2.3125 7.875 C2.33505859 8.62136719 2.35761719 9.36773437 2.38085938 10.13671875 C2.47811945 12.099604 2.73042294 14.05328322 3 16 C3.99 16.66 4.98 17.32 6 18 C3.36 18 0.72 18 -2 18 C-1.34 17.67 -0.68 17.34 0 17 C0 11.39 0 5.78 0 0 Z " fill="#242424" transform="translate(169,230)"/>
<path d="M0 0 C2.5625 1.5 2.5625 1.5 4 3 C3.67 3.66 3.34 4.32 3 5 C2.01 5 1.02 5 0 5 C-0.45375 4.505 -0.9075 4.01 -1.375 3.5 C-2.94366829 1.79277503 -2.94366829 1.79277503 -5.4375 1.5 C-9.02645529 2.20028396 -10.01077261 4.05299646 -12 7 C-12.66 6.67 -13.32 6.34 -14 6 C-11.15056519 -0.57561879 -6.5058217 -0.81029187 0 0 Z " fill="#6D6D6D" transform="translate(279,229)"/>
<path d="M0 0 C2.5625 1.5 2.5625 1.5 4 3 C3.67 3.66 3.34 4.32 3 5 C2.01 5 1.02 5 0 5 C-0.45375 4.505 -0.9075 4.01 -1.375 3.5 C-2.94366829 1.79277503 -2.94366829 1.79277503 -5.4375 1.5 C-9.02645529 2.20028396 -10.01077261 4.05299646 -12 7 C-12.66 6.67 -13.32 6.34 -14 6 C-11.15056519 -0.57561879 -6.5058217 -0.81029187 0 0 Z " fill="#6D6D6D" transform="translate(200,229)"/>
<path d="M0 0 C1.98 0.99 1.98 0.99 4 2 C4 4.97 4 7.94 4 11 C3.01 11.33 2.02 11.66 1 12 C0.67 8.04 0.34 4.08 0 0 Z " fill="#282828" transform="translate(280,232)"/>
<path d="M0 0 C1.98 0.99 1.98 0.99 4 2 C4 4.97 4 7.94 4 11 C3.01 11.33 2.02 11.66 1 12 C0.67 8.04 0.34 4.08 0 0 Z " fill="#282828" transform="translate(201,232)"/>
<path d="M0 0 C1.66666667 3.33333333 3.33333333 6.66666667 5 10 C2.13275314 9.42655063 1.1385485 9.1385485 -1 7 C-1.1875 3.9375 -1.1875 3.9375 -1 1 C-0.67 0.67 -0.34 0.34 0 0 Z " fill="#262626" transform="translate(315,237)"/>
<path d="M0 0 C2.64 0 5.28 0 8 0 C7.51917969 0.34675781 7.03835938 0.69351563 6.54296875 1.05078125 C4.24641888 3.95199235 4.47973801 6.54171147 4.3125 10.1875 C4.24675781 11.45980469 4.18101562 12.73210937 4.11328125 14.04296875 C4.07589844 15.01878906 4.03851563 15.99460938 4 17 C3.67 17 3.34 17 3 17 C2.95101563 15.94039062 2.90203125 14.88078125 2.8515625 13.7890625 C2.77653291 12.40101503 2.70098515 11.01299549 2.625 9.625 C2.5940625 8.92632812 2.563125 8.22765625 2.53125 7.5078125 C2.40500502 3.29814173 2.40500502 3.29814173 0 0 Z " fill="#282828" transform="translate(286,229)"/>
<path d="M0 0 C0.33 0 0.66 0 1 0 C0.67 3.3 0.34 6.6 0 10 C-3.63 9.67 -7.26 9.34 -11 9 C-11 8.67 -11 8.34 -11 8 C-9.741875 7.979375 -8.48375 7.95875 -7.1875 7.9375 C-4.98300672 7.76957465 -4.98300672 7.76957465 -3 7 C-1.31016493 4.71019091 -0.81037139 2.78565167 0 0 Z " fill="#767676" transform="translate(302,239)"/>
<path d="M0 0 C0.66 0.66 1.32 1.32 2 2 C-0.33623775 3.82518575 -2.08898065 5.01010373 -5.11328125 4.9765625 C-7.08537617 4.71735287 -9.04463697 4.36455921 -11 4 C-7.51852477 1.67901651 -6.05234873 2 -2 2 C-1.34 1.34 -0.68 0.68 0 0 Z " fill="#8F8F8F" transform="translate(329,244)"/>
<path d="M0 0 C1.32 0.33 2.64 0.66 4 1 C4 4.50935186 3.62457273 7.56484998 3 11 C2.67 11 2.34 11 2 11 C1.34 7.37 0.68 3.74 0 0 Z " fill="#505050" transform="translate(328,231)"/>
<path d="M0 0 C0.99 0 1.98 0 3 0 C3.625 1.8125 3.625 1.8125 4 4 C3.01 5.485 3.01 5.485 2 7 C1.34 7 0.68 7 0 7 C0 4.69 0 2.38 0 0 Z " fill="#363636" transform="translate(220,231)"/>
<path d="M0 0 C0.66 0.33 1.32 0.66 2 1 C2.40729228 3.32156597 2.74438677 5.6568787 3 8 C0.69 6.02 -1.62 4.04 -4 2 C-2.68 1.34 -1.36 0.68 0 0 Z " fill="#686868" transform="translate(260,228)"/>
<path d="M0 0 C2.12472576 -0.05386629 4.24983652 -0.09273071 6.375 -0.125 C7.55835938 -0.14820313 8.74171875 -0.17140625 9.9609375 -0.1953125 C13 0 13 0 15 2 C10.01937884 3.66020705 5.04327586 2.06978579 0 1 C0 0.67 0 0.34 0 0 Z " fill="#757575" transform="translate(207,229)"/>
<path d="M0 0 C0.66 1.32 1.32 2.64 2 4 C-1.72965139 6.03435531 -3.66905042 7 -8 7 C-8 6.34 -8 5.68 -8 5 C-6.576875 4.87625 -6.576875 4.87625 -5.125 4.75 C-1.89538209 4.34925077 -1.89538209 4.34925077 -0.625 1.9375 C-0.41875 1.298125 -0.2125 0.65875 0 0 Z " fill="#888888" transform="translate(280,242)"/>
<path d="M0 0 C0.66 1.32 1.32 2.64 2 4 C-1.72965139 6.03435531 -3.66905042 7 -8 7 C-8 6.34 -8 5.68 -8 5 C-6.576875 4.87625 -6.576875 4.87625 -5.125 4.75 C-1.89538209 4.34925077 -1.89538209 4.34925077 -0.625 1.9375 C-0.41875 1.298125 -0.2125 0.65875 0 0 Z " fill="#888888" transform="translate(201,242)"/>
<path d="M0 0 C0.99 0.33 1.98 0.66 3 1 C3.3721042 2.32303717 3.70630173 3.65737935 4 5 C4.66 5.33 5.32 5.66 6 6 C4.35 6 2.7 6 1 6 C0.67 4.02 0.34 2.04 0 0 Z " fill="#383838" transform="translate(220,242)"/>
<path d="M0 0 C0.99 0.33 1.98 0.66 3 1 C2.67 2.65 2.34 4.3 2 6 C1.01 6.33 0.02 6.66 -1 7 C-0.67 4.69 -0.34 2.38 0 0 Z " fill="#2B2B2B" transform="translate(181,232)"/>
<path d="M0 0 C2.1519437 3.22791555 2.20086443 4.28400809 2 8 C-1.875 3.25 -1.875 3.25 -3 1 C-2.01 0.67 -1.02 0.34 0 0 Z " fill="#585858" transform="translate(243,228)"/>
</svg>
